<?xml version="1.0" standalone="no"?>
<!DOCTYPE svg PUBLIC "-//W3C//DTD SVG 1.1//EN" "http://www.w3.org/Graphics/SVG/1.1/DTD/svg11.dtd" >
<svg xmlns="http://www.w3.org/2000/svg">
<metadata>
<json>
<![CDATA[
{
	"fontFamily": "icon-8trip-mobile",
	"description": "Font generated by IcoMoon.",
	"majorVersion": 1,
	"minorVersion": 0,
	"version": "Version 1.0",
	"fontId": "icon-8trip-mobile",
	"psName": "icon-8trip-mobile",
	"subFamily": "Regular",
	"fullName": "icon-8trip-mobile"
}
]]>
</json>
</metadata>
<defs>
<font id="icon-8trip-mobile" horiz-adv-x="1024">
<font-face units-per-em="1024" ascent="896" descent="-128" />
<missing-glyph horiz-adv-x="1024" />
<glyph unicode="&#x20;" horiz-adv-x="0" d="" />
<glyph unicode="&#xe900;" glyph-name="help" data-tags="help" horiz-adv-x="983" d="M491.52-126.837c-271.466 0-491.52 220.054-491.52 491.52 0 271.417 220.054 491.52 491.52 491.52s491.52-220.103 491.52-491.52c0-271.466-220.054-491.52-491.52-491.52zM554.238 277.094l19.366 15.139c48.431 37.842 72.995 98.648 64.438 159.512s-48.934 112.54-105.923 135.561c-56.988 23.022-121.929 13.891-170.361-23.951l-19.366-15.139c-14.133-10.709-21.403-28.201-19.023-45.773s14.040-32.5 30.513-39.064c16.473-6.564 35.204-3.747 49.017 7.373l19.366 15.139c32.094 24.908 78.289 19.16 103.301-12.853s19.414-78.227-12.517-103.342l-19.366-15.139c-13.838-10.817-20.853-28.195-18.404-45.587s13.991-32.157 30.278-38.732c16.287-6.575 34.844-3.962 48.682 6.855zM491.52 118.923c27.146 0 49.152 22.006 49.152 49.152s-22.006 49.152-49.152 49.152c-27.146 0-49.152-22.006-49.152-49.152s22.006-49.152 49.152-49.152z" />
<glyph unicode="&#xe901;" glyph-name="copy" data-tags="copy" d="M708.949 839.111h-428.496c-19.284-0.038-37.177-10.385-47.302-27.355l-149.825-154.882c-16.383-10.505-26.375-28.998-26.436-48.93v-520.127c0-31.918 25.023-57.792 55.891-57.792h596.169c30.868 0 55.891 25.874 55.891 57.792v693.503c0 31.918-25.023 57.792-55.891 57.792zM224.561 721.216v-55.48h-53.637l53.637 55.48zM708.949 87.817h-596.169v518.201c0.354 0.385 0.801 0.385 1.118 0.771l1.136 1.156h165.418v171.064l1.136 1.156c0.317 0.385 0.428 0.771 0.727 1.156h426.633v-693.503zM911.22 737.975h-428.496c-19.284-0.038-37.177-10.385-47.302-27.355l-149.825-154.882c-16.383-10.505-26.375-28.998-26.436-48.93v-520.127c0-31.918 25.023-57.792 55.891-57.792h596.169c30.868 0 55.891 25.874 55.891 57.792v693.503c0 31.918-25.023 57.792-55.891 57.792zM426.833 620.080v-55.48h-53.637l53.637 55.48zM911.22-13.319h-596.169v518.201c0.354 0.385 0.801 0.385 1.118 0.771l1.136 1.156h165.418v171.064l1.136 1.156c0.317 0.385 0.428 0.771 0.727 1.156h426.633v-693.503z" />
<glyph unicode="&#xe902;" glyph-name="car-2" data-tags="car-2" d="M918.674 504.64l-187.769 75.252c-31.259 12.536-64.189 18.884-97.884 18.884h-115.096c-41.233 0-82.469-9.874-119.229-28.578l-170.136-86.518-122.048-17.795c-29.584-4.314-56.632-19.146-76.199-41.778-19.55-22.615-30.312-51.535-30.312-81.421v-72.028c0-11.125 9.029-20.153 20.153-20.153h86.459c4.333-19.61 14.269-37.545 28.94-51.854 19.508-18.965 45.245-29.425 72.471-29.425 27.207 0 52.944 10.459 72.452 29.425 14.692 14.328 24.647 32.306 28.961 51.854h361.21c4.333-19.61 14.269-37.545 28.961-51.835 19.489-18.984 45.223-29.444 72.431-29.444 27.226 0 52.963 10.459 72.452 29.425 14.692 14.309 24.628 32.246 28.961 51.854h91.9c11.125 0 20.153 9.029 20.153 20.153v135.189c0 43.734-26.237 82.507-66.828 98.793zM715.911 542.487l144.944-58.102h-109.374l-48.147 62.697c4.213-1.411 8.406-2.943 12.577-4.595zM536.828 558.469h96.192c3.669 0 7.316-0.081 10.943-0.262l56.691-73.822h-163.827v74.084zM416.955 534.264c24.768 12.596 51.916 20.455 79.566 23.136v-73.016h-177.652l98.086 49.88zM109.212 425.457c-8.282-28.033-33.011-49.073-62.959-51.935 10.498 26.339 34.017 46.594 62.959 51.935zM208.003 209.531c-35.107 0-63.563 28.456-63.563 63.563s28.456 63.563 63.563 63.563c35.107 0 63.563-28.456 63.563-63.563 0.002-35.107-28.454-63.563-63.563-63.563zM772.059 209.531c-35.107 0-63.584 28.456-63.584 63.563s28.478 63.563 63.584 63.563c35.107 0 63.563-28.456 63.563-63.563s-28.456-63.563-63.563-63.563zM945.196 290.81h-70.82c-8.444 48.852-51.088 86.157-102.338 86.157-51.231 0-93.875-37.305-102.319-86.157h-359.357c-8.444 48.852-51.11 86.157-102.338 86.157-51.25 0-93.894-37.305-102.338-86.157h-65.378v42.080c57.096 0.524 104.213 43.491 111.246 98.833l84.746 12.353h505.248c0 0 0 0 0.019 0 0 0 0 0 0.019 0h127.53v-26.239c0-36.881 30.008-66.889 66.87-66.889h9.21v-60.139zM945.196 391.255h-9.21c-14.632 0-26.562 11.93-26.562 26.582v26.239h23.641c7.718-10.923 12.132-24.143 12.132-38.231v-14.59zM558.579 387.594h-133.67c-11.131 0-20.153-9.024-20.153-20.153s9.024-20.153 20.153-20.153h133.67c11.129 0 20.153 9.024 20.153 20.153s-9.024 20.153-20.153 20.153zM208.003 299.818c-14.752 0-26.703-11.97-26.703-26.724 0-14.752 11.951-26.724 26.703-26.724 14.773 0 26.724 11.97 26.724 26.724s-11.951 26.724-26.724 26.724zM772.059 299.818c-14.773 0-26.724-11.97-26.724-26.724 0-14.752 11.951-26.724 26.724-26.724 14.752 0 26.703 11.97 26.703 26.724s-11.951 26.724-26.703 26.724zM208.003 299.818c-14.752 0-26.703-11.97-26.703-26.724 0-14.752 11.951-26.724 26.703-26.724 14.773 0 26.724 11.97 26.724 26.724s-11.951 26.724-26.724 26.724zM772.059 299.818c-14.773 0-26.724-11.97-26.724-26.724 0-14.752 11.951-26.724 26.724-26.724 14.752 0 26.703 11.97 26.703 26.724s-11.951 26.724-26.703 26.724z" />
<glyph unicode="&#xe903;" glyph-name="king-bed" data-tags="king-bed" d="M1001.244 406.983c0 37.703-30.564 68.267-68.267 68.267v248.946c0.127 18.228-6.995 35.759-19.799 48.734s-30.239 20.329-48.467 20.443h-728.178c-18.228-0.114-35.664-7.468-48.467-20.443s-19.926-30.506-19.799-48.734v-248.946c-37.703 0-68.267-30.564-68.267-68.267v-397.767c0-18.851 15.282-34.133 34.133-34.133s34.133 15.282 34.133 34.133v56.206h864.711v-56.206c0-18.851 15.282-34.133 34.133-34.133s34.133 15.282 34.133 34.133v397.767zM136.533 724.196h728.178v-248.946h-45.511v91.022c0 37.703-30.564 68.267-68.267 68.267h-182.044c-37.703 0-68.267-30.564-68.267-68.267v-91.022h-22.756v91.022c0 37.703-30.564 68.267-68.267 68.267h-182.044c-37.703 0-68.267-30.564-68.267-68.267v-91.022h-22.756v248.946zM750.933 475.25h-182.044v91.022h182.044v-91.022zM409.6 475.25h-182.044v91.022h182.044v-91.022zM68.267 406.983h864.711v-182.272h-864.711v182.272zM68.267 133.689v22.756h864.711v-22.756h-864.711z" />
<glyph unicode="&#xe904;" glyph-name="landing" data-tags="landing" d="M444.302 633.628l224.688-358.628 176.993-48.697c19.57-5.689 64.284-32.54 64.284-65.081 0-29.582-70.542-49.38-103.811-49.38-3.277 0-6.19 0.228-8.647 0.455l-321.354 65.308-350.822 197.746-34.816 150.869 80.35-114.233 305.289-104.22-64.284 325.86h32.131zM444.302 702.805h-32.131c-20.474-0.059-39.831-9.336-52.702-25.259-12.947-16.090-18.12-37.080-14.131-57.344l42.849-217.316-175.855 69.632-65.991 93.753c-12.648 18.133-33.37 28.927-55.478 28.9-19.222 0.037-37.565-8.050-50.503-22.267s-19.266-33.238-17.422-52.372l34.839-150.642c1.907-24.716 16.914-46.514 39.322-57.116l350.8-197.973c4.879-2.234 9.993-3.914 15.246-5.006l324.176-65.764c6.358-0.942 12.778-1.398 19.206-1.367 53.862 0 171.964 29.811 171.964 118.558 0 71.68-69.678 118.784-113.618 131.527l-152.462 41.87-210.512 336.1c-12.352 19.919-34.111 32.050-57.549 32.085h-0.046z" />
<glyph unicode="&#xe905;" glyph-name="take-off" data-tags="take-off" d="M866.833 600.998c13.704 0.894 27.212-3.617 37.629-12.565 22.618-22.663-22.865-96.709-45.213-113.089l-271.39-180.628-384.479-141.361-113.089 96.036 135.706-22.438 271.39 158.189-271.39 180.628 22.618 22.663 407.074-90.875 158.324 90.875c16.438 8.106 34.492 12.401 52.82 12.565v0zM866.833 668.762c-29.819-0.246-59.165-7.47-85.692-21.092l-136.357-78.085-381.45 85.041c-4.872 0.966-9.821 1.492-14.787 1.571-18.019 0.033-35.299-7.161-47.973-19.97l-22.618-22.438c-14.384-14.351-21.564-34.401-19.56-54.621s12.982-38.47 29.904-49.717l180.942-120.493-156.327-91.099-111.54 18.399c-3.705 0.633-7.46 0.933-11.219 0.898-28.44 0.076-53.896-17.633-63.714-44.324s-1.907-56.675 19.803-75.047l113.111-96.036c12.273-10.412 27.839-16.137 43.934-16.156 7.996-0.022 15.928 1.423 23.403 4.264l384.456 141.136c5.008 1.825 9.783 4.235 14.226 7.18l271.502 180.852c0.785 0.449 1.571 1.122 2.244 1.571 42.392 36.046 70.396 86.144 78.893 141.136 2.949 27.413-6.459 54.717-25.669 74.495-22.908 22.057-53.826 33.809-85.602 32.535h0.090z" />
<glyph unicode="&#xe906;" glyph-name="flight" data-tags="flight" d="M950.857 384c-1.778-18.201-10.471-35.104-24.381-47.407-21.049-15.483-46.748-23.811-73.143-23.704h-195.048l-219.429-284.444h-73.143l121.905 308.148h-268.19l-97.524-118.519h-48.762l48.762 165.926-48.762 165.926h48.762l97.524-118.519h268.19l-121.905 308.148h73.143l219.429-284.444h195.048c26.394 0.107 52.094-8.221 73.143-23.704 13.91-12.303 22.603-29.206 24.381-47.407v0zM1024 384c-1.817 37.074-18.228 72.048-45.836 97.683-34.66 29.102-79.036 44.936-124.83 44.539h-158.476l-197.486 256c-13.843 17.871-35.503 28.4-58.514 28.444h-73.143c-40.357-0.091-73.049-31.875-73.143-71.111 0.050-8.724 1.701-17.369 4.876-25.529l83.627-211.508h-126.537l-75.581 91.828c-13.866 16.852-34.854 26.671-57.051 26.69h-48.762c-40.346-0.117-73.022-31.886-73.143-71.111 0-6.613 0.992-13.191 2.926-19.532l42.91-146.394-42.91-146.394c-1.934-6.34-2.926-12.918-2.926-19.532 0.12-39.225 32.797-70.994 73.143-71.111h48.762c22.198 0.019 43.185 9.838 57.051 26.69l75.581 91.828h126.537l-83.627-211.508c-3.175-8.16-4.827-16.805-4.876-25.529 0.094-39.236 32.786-71.020 73.143-71.111h73.143c23.011 0.045 44.671 10.573 58.514 28.444l197.486 256h158.476c45.795-0.396 90.171 15.437 124.83 44.539 27.608 25.635 44.019 60.609 45.836 97.683v0z" />
<glyph unicode="&#xe907;" glyph-name="add-circle" data-tags="add-circle" d="M512 896c-282.77 0-512-229.23-512-512s229.23-512 512-512c282.77 0 512 229.23 512 512-0.321 282.637-229.363 511.679-512 512zM512-58.182c-244.21 0-442.182 197.972-442.182 442.182s197.972 442.182 442.182 442.182c244.21 0 442.182-197.972 442.182-442.182s-197.972-442.182-442.182-442.182zM698.182 407.273h-139.636v139.636c0 19.28-15.629 34.909-34.909 34.909s-34.909-15.629-34.909-34.909v-139.636h-139.636c-19.28 0-34.909-15.629-34.909-34.909s15.629-34.909 34.909-34.909h139.636v-139.636c0-19.28 15.629-34.909 34.909-34.909s34.909 15.629 34.909 34.909v139.636h139.636c19.28 0 34.909 15.629 34.909 34.909s-15.629 34.909-34.909 34.909z" />
<glyph unicode="&#xe908;" glyph-name="mine-circle" data-tags="mine-circle" d="M512 896c-282.77 0-512-229.23-512-512s229.23-512 512-512c282.77 0 512 229.23 512 512-0.321 282.637-229.363 511.679-512 512zM510.448-56.63c-244.21 0-442.182 197.972-442.182 442.182s197.972 442.182 442.182 442.182c244.21 0 442.182-197.972 442.182-442.182s-197.972-442.182-442.182-442.182zM307.2 418.133h409.6c18.851 0 34.133-15.282 34.133-34.133s-15.282-34.133-34.133-34.133h-409.6c-18.851 0-34.133 15.282-34.133 34.133s15.282 34.133 34.133 34.133z" />
<glyph unicode="&#xe909;" glyph-name="dinner" data-tags="dinner" d="M554.667 725.333c-188.513 0-341.333-152.82-341.333-341.333s152.82-341.333 341.333-341.333c188.513 0 341.333 152.82 341.333 341.333s-152.82 341.333-341.333 341.333zM554.667 128c-141.158 0-256 114.842-256 256s114.842 256 256 256c141.158 0 256-114.842 256-256s-114.84-256-256-256zM554.667 554.667c-94.106 0-170.667-76.561-170.667-170.667s76.561-170.667 170.667-170.667c94.106 0 170.667 76.561 170.667 170.667s-76.559 170.667-170.667 170.667zM1000.672 374.292v426.781c0 4.118-2.771 7.778-6.888 9.093-4.113 1.313-8.652-0.014-11.279-3.295-56.127-70.223-86.505-155.932-86.505-244.059v-156.129c0-17.906 15.3-32.424 34.177-32.424h14.248c-14.045-137.622-23.326-330.1-23.326-352.637 0-35.506 23.036-64.288 51.451-64.288s51.451 28.785 51.451 64.288c0 22.54-9.281 215.048-23.328 352.67zM161.857 456.169c30.854 16.274 51.476 45.782 51.476 79.488l-15.283 217.582c-0.584 8.294-8.479 14.76-18.022 14.76-10.322 0-18.545-7.529-18.032-16.501l9.938-174.503c0-9.81-9.134-17.76-20.395-17.76-11.263 0-20.395 7.954-20.395 17.76l-4.966 174.431c-0.263 9.219-8.919 16.573-19.51 16.573s-19.245-7.356-19.51-16.573l-4.966-174.431c0-9.81-9.134-17.76-20.395-17.76-11.263 0-20.395 7.954-20.395 17.76l9.938 174.503c0.511 8.976-7.717 16.501-18.032 16.501-9.543 0-17.438-6.466-18.020-14.76l-15.29-217.584c0-33.706 20.62-63.212 51.476-79.488 20.080-10.591 31.275-30.392 28.687-50.712-17.419-136.699-29.248-359.873-29.248-384.183 0-35.313 24.961-63.939 55.751-63.939s55.751 28.628 55.751 63.939c0 24.31-11.831 247.484-29.248 384.183-2.59 20.31 8.616 40.127 28.687 50.714z" />
<glyph unicode="&#xe90a;" glyph-name="atm" data-tags="atm" d="M163.137-128h481.882v35.816h-37.068c-40.944 0-74.136 32.070-74.136 71.631v447.695c0 39.561 33.192 71.631 74.136 71.631h37.068v35.816h-481.882v-662.588zM329.943 427.141c0 9.89 8.298 17.908 18.534 17.908h111.204c10.236 0 18.534-8.018 18.534-17.908v-35.816c0-9.89-8.298-17.908-18.534-17.908h-111.204c-10.236 0-18.534 8.018-18.534 17.908v35.816zM200.205 480.865c0 9.89 8.298 17.908 18.534 17.908s18.534-8.018 18.534-17.908v-35.816c0-9.89-8.298-17.908-18.534-17.908s-18.534 8.018-18.534 17.908v35.816zM200.205 373.418c0 9.89 8.298 17.908 18.534 17.908s18.534-8.018 18.534-17.908v-447.695c0-9.89-8.298-17.908-18.534-17.908s-18.534 8.018-18.534 17.908v447.695zM60.737 650.084v-668.151c-0.004-4.801 1.901-9.405 5.295-12.799l66.988-67.016v658.172l-90.353 245.357v-52.987c0-42.701 18.071-52.626 18.071-102.576zM717.804 143.059c0-23.564-19.103-42.667-42.667-42.667s-42.667 19.103-42.667 42.667c0 23.564 19.103 42.667 42.667 42.667s42.667-19.103 42.667-42.667zM524.549 655.059l-57.996 150.588h-303.416l57.996-150.588h303.416zM364.96 784.013c6.83-6.534 6.83-17.125 0-23.659l-87.475-83.66c-6.865-6.341-17.776-6.25-24.525 0.204s-6.843 16.89-0.213 23.455l87.475 83.66c6.832 6.532 17.906 6.532 24.738 0zM217.757 750.548l34.99 33.464c4.393 4.35 10.897 6.094 17.014 4.563s10.894-6.1 12.495-11.95c1.601-5.85-0.223-12.071-4.771-16.272l-34.99-33.464c-6.865-6.341-17.776-6.25-24.525 0.204s-6.843 16.89-0.213 23.455v0zM614.902 594.824l-111.58 301.176h-460.656l111.58-301.176h460.656zM119.267 860.567h346.85c7.458 0 14.125-4.626 16.706-11.586l72.184-194.879c2.015-5.435 1.231-11.506-2.098-16.259s-8.784-7.587-14.608-7.587h-346.85c-7.458 0-14.125 4.626-16.706 11.586l-72.148 194.879c-2.013 5.429-1.233 11.494 2.088 16.244s8.765 7.589 14.582 7.602zM554.667 436.966v-467.343c0-20.649 17.162-37.387 38.332-37.387h172.492v542.118h-172.492c-21.17 0-38.332-16.739-38.332-37.387zM660.078 193.947c27.23-0.057 51.723-16.163 61.988-40.763s4.265-52.811-15.185-71.399c19.552-18.573 25.617-46.849 15.339-71.51s-34.849-40.789-62.142-40.789c-27.293 0-51.864 16.128-62.142 40.789s-4.213 52.936 15.339 71.51c-19.45 18.588-25.45 46.799-15.185 71.399s34.758 40.706 61.988 40.763zM717.804 52.706c0-23.564-19.103-42.667-42.667-42.667s-42.667 19.103-42.667 42.667c0 23.564 19.103 42.667 42.667 42.667s42.667-19.103 42.667-42.667zM795.608 474.353h60.235v-542.118h-60.235zM946.196-30.377v467.343c0 20.649-17.979 37.387-40.157 37.387h-20.078v-542.118h20.078c22.178 0 40.157 16.739 40.157 37.387z" />
<glyph unicode="&#xe90b;" glyph-name="washing-machine" data-tags="washing-machine" d="M888.531 690.309c18.66 0 35.9-5.831 50.136-15.6l-32.37 142.726c-7.55 38.391-35.586 62.074-73.169 62.074h-663.783c-33.616 0-62.792-25.507-70.972-62.040l-30.106-132.764c9.496 3.457 19.626 5.606 30.317 5.606l789.946-0.002zM785.398 834.359c27.878 0 50.468-22.136 50.468-49.449s-22.593-49.449-50.468-49.449c-27.876 0-50.468 22.136-50.468 49.449s22.591 49.449 50.468 49.449zM627.408 834.359c27.878 0 50.468-22.136 50.468-49.449s-22.593-49.449-50.468-49.449c-27.876 0-50.468 22.136-50.468 49.449s22.593 49.449 50.468 49.449zM432.116 827.909h87.771v-34.4h-87.771v34.4zM432.116 759.109h87.771v-34.4h-87.771v34.4zM95.37-118.891h790.59c29.058 0 52.707 24.375 52.707 54.33v688.165c0 7.208-1.44 14.071-3.919 20.374-0.65 1.667-1.545 3.204-2.354 4.78-2.003 3.911-4.393 7.517-7.22 10.793-1.598 1.865-3.338 3.568-5.166 5.18-0.527-4.057-1.301-8.058-2.232-12.024-1.951-8.295-4.779-16.298-8.451-23.707-0.807-1.648-1.615-3.295-2.512-4.871-12.175-21.461-31.941-36.744-58.661-36.744h-679.835c-22.839 0-45.872 12.261-63.001 30.352-1.266 1.341-2.478 2.716-3.689 4.129-7.362 8.585-13.353 18.291-17.498 28.504-3.215 7.895-5.288 16.082-5.973 24.339-4.235-1.521-8.293-3.386-11.946-5.903-3.18-2.191-6.061-4.744-8.714-7.57-1.475-1.576-2.758-3.314-4.040-5.053-6.677-9.109-10.788-20.319-10.788-32.579v-688.167c0-29.953 23.645-54.328 52.703-54.328zM493.599 510.418c150.16 0 272.315-125.916 272.315-280.7s-122.153-280.7-272.315-280.7c-150.158 0-272.313 125.916-272.313 280.7s122.153 280.7 272.313 280.7zM174.171 597.909h675.867c3.301 0 6.34 0.528 9.186 1.467 18.672 6.127 27.511 30.55 28.243 49.733h-768c1.903-24.473 29.849-51.2 54.704-51.2zM490.667-16.491c119.995 0 217.6 103.349 217.6 230.4s-97.605 230.4-217.6 230.4c-119.993 0-217.6-103.349-217.6-230.4s97.607-230.4 217.6-230.4zM595.83 335.635c14.622 0 26.477-12.552 26.477-28.034 0-15.484-11.855-28.036-26.477-28.036-14.624 0-26.478 12.552-26.478 28.036 0.016 15.482 11.853 28.034 26.478 28.034zM508.789 390.932c14.622 0 26.477-12.552 26.477-28.034 0-15.484-11.855-28.036-26.477-28.036-14.624 0-26.478 12.552-26.478 28.036 0.018 15.482 11.855 28.034 26.478 28.034zM330.531 240.212c18.192 14.304 52.345 35.095 97.328 34.634 32.972-0.332 49.283-12.791 65.804-25.731-0.209 1.621-0.471 3.225-0.471 4.902 0 20.258 15.512 36.679 34.641 36.679 19.133 0 34.641-16.423 34.641-36.679 0-13.51-6.963-25.177-17.234-31.536 6.912-1.401 14.553-2.303 23.362-2.469 46.742-0.865 67.855 24.516 77.222 44.071 4.58-15.889 7.087-32.718 7.087-50.191 0-94.869-72.629-171.766-162.226-171.766-89.599 0-162.227 76.899-162.227 171.766-0.034 8.996 0.818 17.731 2.073 26.32z" />
<glyph unicode="&#xe90c;" glyph-name="wine" data-tags="wine" d="M820.72 229.143h-706.607v-305.105h395.171l-51.898 43.939 44.032 51.991 51.945-44.079-44.079-51.852h311.482v305.105h-0.047zM168.526-50.409l-51.805 44.079 43.985 51.852 51.991-44.032-44.172-51.898zM216.514 81.175l-51.945 43.985 44.079 51.898 51.852-44.079-43.985-51.805zM756.72 81.175l-51.852 43.985 43.939 51.898 51.991-44.079-44.079-51.805zM84.79 764.276l-30.487 96.628 111.476 35.095 30.394-96.628-111.383-35.095zM796.61 712.657l-43.846-83.875c-54.086 3.025-107.38-24.809-134.097-75.916l-42.729-82.106-117.853-225.513-77.638 247.389-27.788 88.39c-17.361 54.924-64.977 91.741-118.737 98.211l-28.3 90.345-111.523-35.049 28.346-90.298c-40.355-36.119-58.508-93.51-41.1-148.573l27.695-88.297 51.479-163.84h617.705l49.804 95.697 15.267 29.231v-458.938h-751.802v471.18h-37.19v-508.276h826.182v508.276h-30.813l21.178 40.541c26.624 51.153 18.897 110.918-14.476 153.414l43.799 84.015-103.564 53.993zM207.717 274.199l-53.574 135.261 178.688 71.401 76.521-206.662h-201.635zM747.504 277.318h-217.367l111.523 204.428 169.751-79.407-63.907-125.021zM961.474 776.145l-46.825-89.879-103.703 54.086 46.871 89.833 103.657-54.039z" />
<glyph unicode="&#xe90d;" glyph-name="meeting1" data-tags="meeting" d="M845.108 291.47c64.64 0 117.205-52.564 117.205-117.205s-52.564-117.205-117.205-117.205c-64.64 0-117.205 52.564-117.205 117.205s52.564 117.205 117.205 117.205zM512 291.47c64.64 0 117.205-52.564 117.205-117.205s-52.564-117.205-117.205-117.205c-64.64 0-117.205 52.564-117.205 117.205s52.564 117.205 117.205 117.205zM379.636 57.060c32.767-37.586 79.698-61.687 132.364-61.687s99.597 24.101 132.364 61.687c28.607-32.815 46.528-75.805 46.528-123.373v-30.843c0-17.048-13.335-30.843-29.815-30.843h-298.153c-16.48 0-29.815 13.795-29.815 30.843v30.843c0 47.569 17.921 90.558 46.528 123.373zM178.892 291.47c64.64 0 117.205-52.564 117.205-117.205s-52.564-117.205-117.205-117.205c-64.64 0-117.205 52.564-117.205 117.205s52.564 117.205 117.205 117.205zM48.652 57.060c32.86-37.586 79.925-61.687 132.738-61.687 44.054 0 83.563 17.392 114.706 44.77-15.751-33.218-25.008-69.274-25.008-106.457v-30.843c0-10.865 2.157-21.148 5.507-30.843h-246.696c-16.526 0-29.899 13.795-29.899 30.843v30.843c0 47.569 19.965 90.558 48.652 123.373zM752.912-66.313c0 37.183-9.257 73.239-25.008 106.457 31.143-27.379 70.652-44.77 114.706-44.77 52.812 0 99.878 24.101 132.738 61.687 28.688-32.815 48.652-75.805 48.652-123.373v-30.843c0-17.048-13.373-30.843-29.899-30.843h-246.696c3.351 9.695 5.507 19.978 5.507 30.843v30.843zM512 772.627c64.64 0 117.205-56.446 117.205-123.373s-52.564-123.373-117.205-123.373c-64.64 0-117.205 56.446-117.205 123.373s52.564 123.373 117.205 123.373zM91.708 896c536.193 0 304.648 0 840.585 0 16.594 0 30.021-13.389 30.021-29.936v-482.971c0-16.547-13.427-29.936-30.021-29.936-1091.347 0-420.601 0-840.585 0-16.594 0-30.021 13.389-30.021 29.936v482.971c0 16.547 13.427 29.936 30.021 29.936zM241.812 413.029h90.063c0 46.17 18.045 87.895 46.849 119.745 32.993-36.48 80.248-59.872 133.277-59.872s100.284 23.392 133.277 59.872c28.804-31.85 46.849-73.575 46.849-119.745h90.063v423.099h-540.376v-423.099z" />
<glyph unicode="&#xe90e;" glyph-name="elevator" data-tags="elevator" d="M0 896v-1024h1024v1024h-1024zM358.4 844.8h307.2v-85.333h-307.2v85.333zM204.8-93.867v802.133h290.133v-802.133h-290.133zM819.2-93.867h-290.133v802.133h290.133v-802.133zM972.8 179.2h-102.4v119.467h102.4v-119.467zM972.8 332.8h-102.4v119.467h102.4v-119.467z" />
<glyph unicode="&#xe90f;" glyph-name="ringing-bell" data-tags="ringing-bell" d="M819.149 195.417h-61.308v58.027h90.667c15.26 0 26.768 11.903 26.768 27.925v10.057c0 188.489-138.159 343.659-314.311 359.497v37.717c17.27 0 28.209 12.991 28.209 29.013s-11.795 29.013-27.055 29.013h-55.263c-15.26 0-28.209-12.991-28.209-29.013s13.239-29.013 27.055-29.013v-37.366c-176.152-13.807-317.765-169.924-317.765-359.852v-10.057c0-16.023 13.236-27.925 28.495-27.925h85.486v-58.027h-52.673c-42.85 0-78.578-35.385-78.578-80.378v-63.467c0-16.023 13.236-30.236 28.495-30.236h670.070c15.26 0 26.768 14.213 26.768 30.236v63.467c0 44.996-34.001 80.381-76.851 80.381zM501.989 542.732c15.153 2.067 28.996-9.157 30.954-25.042 1.962-15.892-8.714-30.446-23.85-32.502-58.669-7.982-112.561-46.653-140.646-100.927-5.008-9.68-14.5-15.17-24.302-15.17-4.456 0-8.977 1.139-13.17 3.529-13.408 7.649-18.372 25.263-11.087 39.346 36.391 70.328 106.168 120.434 182.1 130.767zM357.181 253.444h345.397v-58.027h-345.397v58.027zM210.134 669.961c5.136-5.696 12.495-8.628 19.906-8.628 5.892 0 11.816 1.854 16.683 5.653 10.989 8.577 12.42 23.815 3.198 34.038l-33.388 37.012c-9.219 10.222-25.597 11.554-36.589 2.975-10.989-8.577-12.42-23.815-3.198-34.038l33.388-37.012zM124.934 547.558c6.313 13.602 2.563 31.001-8.37 38.855l-39.599 28.441c-10.934 7.85-24.916 3.193-31.232-10.413-6.313-13.602-2.563-31.001 8.37-38.855l39.599-28.441c3.601-2.585 7.53-3.811 11.408-3.811 7.902 0 15.589 5.102 19.824 14.224zM101.352 398.746l-63.507 6.312c-17.491 1.729-34.256-4.858-37.351-14.745-3.091-9.886 8.62-19.312 26.155-21.057l63.507-6.312c1.894-0.186 3.776-0.277 5.634-0.277 15.351 0 28.956 6.203 31.713 15.023 3.095 9.886-8.612 19.312-26.151 21.057zM1023.505 390.314c-3.095 9.889-19.791 16.461-37.35 14.748l-63.505-6.31c-17.539-1.745-29.246-11.171-26.155-21.060 2.761-8.821 16.362-15.025 31.712-15.025 1.858 0 3.744 0.091 5.634 0.277l63.505 6.31c17.543 1.745 29.25 11.171 26.159 21.060zM978.268 604.436c-6.31 13.606-20.301 18.271-31.229 10.417l-39.6-28.439c-10.937-7.854-14.686-25.25-8.373-38.852 4.235-9.126 11.92-14.228 19.821-14.228 3.878 0 7.81 1.23 11.405 3.811l39.602 28.439c10.937 7.857 14.686 25.25 8.373 38.852zM777.277 666.987c4.866-3.799 10.788-5.653 16.683-5.653 7.408 0 14.771 2.935 19.907 8.628l33.389 37.013c9.22 10.223 7.788 25.461-3.198 34.038-10.989 8.577-27.37 7.248-36.59-2.975l-33.392-37.016c-9.216-10.223-7.788-25.461 3.201-34.035z" />
<glyph unicode="&#xe910;" glyph-name="map-pin" data-tags="map-pin" d="M863.903 347.141l157.671-331.186c6.412-13.469-0.328-24.489-14.979-24.489h-989.189c-14.651 0-21.392 11.020-14.979 24.489l157.673 331.186c2.508 5.268 9.249 9.579 14.979 9.579h135.196c4.166 0 9.793-2.667 12.521-5.889 9.172-10.838 18.516-21.427 27.832-31.907 8.848-9.949 17.743-20.027 26.567-30.342h-160.445c-5.731 0-12.472-4.31-14.979-9.579l-104.451-219.401h829.357l-104.443 219.401c-2.506 5.269-9.248 9.579-14.98 9.579h-160.808c8.823 10.315 17.721 20.393 26.569 30.342 9.345 10.511 18.74 21.079 27.934 31.921 2.724 3.213 8.339 5.875 12.499 5.875h135.481c5.727 0 12.467-4.308 14.975-9.579zM743.808 573.472c0-180.966-147.339-214.905-216.633-388.814-5.63-14.132-25.088-14.060-30.72 0.068-62.509 156.8-188.466 199.799-212.565 339.485-23.728 137.516 69.389 272.22 205.351 285.361 138.274 13.365 254.568-97.482 254.568-236.101zM634.336 573.472c0 69.179-54.846 125.261-122.505 125.261s-122.505-56.081-122.505-125.261c0-69.181 54.846-125.261 122.505-125.261s122.505 56.080 122.505 125.261z" />
<glyph unicode="&#xe911;" glyph-name="waiter" data-tags="waiter" d="M372.628 363.789c0.664 11.332 1.327 22.68 2.745 34.142 2.62 27.177 8.251 54.465 14.003 81.010 3.501 13.241 7.295 26.32 11.274 39.107 5.089 12.481 10.069 24.895 15.036 37.020 11.242 23.668 23.812 45.783 38.816 64.294 3.562 4.77 7.093 9.392 10.549 14.031 3.947 4.138 7.897 8.148 11.704 12.158 8.035 7.614 15.004 15.859 23.026 21.906 15.989 12.414 30.135 24.216 44.536 31.524 13.881 8.117 25.784 15.163 36.517 19.14 21.035 8.874 32.973 13.335 32.973 13.335s-10.18-8.471-27.974-22.212c-9.193-6.289-18.938-16.215-30.536-26.384-12.092-9.698-23.039-23.601-36.055-36.925-6.509-6.807-11.563-15.358-17.719-23.231-2.992-4.010-6.060-8.051-9.225-12.158-2.559-4.528-5.211-9.069-7.895-13.708-11.489-17.849-20.077-38.801-29.025-60.058-3.671-11.123-7.385-22.407-11.181-33.803-2.591-11.849-5.458-23.826-8.588-35.759-4.704-24.522-9.315-49.534-11.306-75.252-1.386-9.328-2.049-18.737-2.883-28.209 194.943-0.033 345.826-0.161 556.949-0.161 0.709 9.701 1.11 19.53 1.11 29.406 0 186.395-129.574 339.91-296.309 360.247 10.764 10.555 17.581 25.527 17.581 42.179 0.061 32.008-24.675 57.907-55.147 57.907-30.504 0-55.269-25.9-55.269-57.907 0-16.686 6.785-31.621 17.579-42.179-166.722-20.337-296.262-173.853-296.262-360.247 0-9.846 0.337-19.544 1.033-29.214 20.589 0.003 40.467 0.003 59.944 0.003zM222.609 363.594h801.391v-89.043h-801.391v89.043zM711.24 247.914c-40.476-21.125-181.607-75.807-181.607-75.807l-166.828 11.228c0 0 95.425 28.512 132.417 37.436 37.056 8.892 20.938 53.779 0.45 53.779-20.486 0-199.029-7.92-199.029-7.92l-118.557-45.859 31.376-213.351c0 0 24.409 44.89 48.756 44.89 24.438 0 236.117-6.050 264.851 0 28.749 6.119 203.854 134.805 224.825 149.814 20.877 14.939 3.979 66.947-36.654 45.79zM0 162.76v-244.383l178.087 32.285-44.552 234.845z" />
<glyph unicode="&#xe912;" glyph-name="dumbbell" data-tags="dumbbell" d="M1005.903 572.060l-87.201 87.201 65.552 65.528c5.796 5.79 9.054 13.635 9.054 21.841s-3.258 16.051-9.052 21.843l-87.766 87.766c-11.585 11.586-32.102 11.586-43.687 0l-65.528-65.552-87.214 87.218c-24.129 24.129-63.252 24.129-87.382 0-24.133-24.129-24.133-63.252 0-87.383l305.839-305.843c24.133-24.129 63.256-24.129 87.385 0s24.129 63.252 0 87.383zM411.32-22.519l-305.839 305.842c-24.133 24.129-63.252 24.129-87.385 0-24.129-24.133-24.129-63.256 0-87.384l87.216-87.215-65.425-65.398c-5.794-5.794-9.052-13.637-9.052-21.842s3.258-16.051 9.052-21.842l87.766-87.737c6.033-6.037 13.938-9.054 21.843-9.054s15.81 3.017 21.843 9.052l65.398 65.398 87.201-87.203c24.129-24.129 63.252-24.129 87.382 0 24.133 24.133 24.133 63.256 0 87.384zM538.352 532.645l-174.997-175.241 122.294-122.049 174.997 175.245zM940.583 435.581l-377.001 377.004c-23.133 23.133-60.644 23.133-83.777 0-23.137-23.137-23.137-60.642 0-83.78l377.001-377.004c23.133-23.133 60.642-23.133 83.777 0 23.137 23.133 23.137 60.642 0 83.78zM544.196 39.192l-377.003 377.006c-23.133 23.133-60.642 23.133-83.775 0-23.137-23.137-23.137-60.646 0-83.78l377.001-377.004c23.133-23.133 60.642-23.133 83.777 0 23.137 23.133 23.137 60.642 0 83.778z" />
<glyph unicode="&#xe913;" glyph-name="car" data-tags="car" d="M994.074 530.944c-4.89 5.965-12.186 9.446-19.84 9.446h-97.306c-24.013 63.334-55.296 125.389-90.854 148.813-123.008 80.922-449.28 80.922-572.288 0-35.584-23.45-66.739-85.581-90.88-148.813h-97.306c-7.731 0-15.002-3.482-19.84-9.446-4.864-5.939-6.81-13.798-5.222-21.35l14.413-69.837c2.458-11.904 12.954-20.403 25.062-20.403h28.826c-27.827-32.102-41.318-72.525-41.498-112.973-0.179-49.971 18.79-95.13 53.478-127.078 0.384-0.333 0.768-0.563 1.126-0.896v-97.715c0-21.171 17.203-38.4 38.4-38.4h89.754c21.197 0 38.4 17.229 38.4 38.4v39.27h502.81v-39.27c0-21.171 17.203-38.4 38.4-38.4h89.754c21.146 0 38.4 17.229 38.4 38.4v95.795c36.813 33.715 54.4 80.102 54.63 126.413 0.154 41.83-13.952 83.738-43.418 116.506h30.746c12.16 0 22.656 8.499 25.062 20.429l14.438 69.811c1.485 7.501-0.384 15.309-5.248 21.299zM255.949 625.075c98.048 64.538 389.862 64.538 487.859 0 19.046-12.493 43.546-63.002 65.997-124.851h-619.802c22.4 61.824 46.899 112.307 65.946 124.851zM141.107 296.755c0 41.728 33.843 75.52 75.546 75.52 41.754 0 75.546-33.792 75.546-75.52s-33.792-75.546-75.546-75.546c-41.702 0-75.546 33.818-75.546 75.546zM784.154 221.21c-41.702 0-75.546 33.818-75.546 75.546s33.843 75.52 75.546 75.52c41.754 0 75.546-33.792 75.546-75.52s-33.843-75.546-75.546-75.546z" />
<glyph unicode="&#xe914;" glyph-name="motorbike" data-tags="motorbike" d="M164.801 37.744c91.035 0 164.81 72.096 164.81 161.020 0 5.584-0.289 11.086-0.865 16.524l66.407 11.391c0 0 2.248 2.927 18.617-13.097 7-6.839 16.525-7.706 25.213-6.597 15.446-5.102 50.385-14.918 90.736-14.918 31.306 0 65.79 5.953 96.616 24.714 47.001 28.639 74.8 80.768 83.214 154.508 20.7 22.3 42.256 39.7 63.382 53.248l18.15-52.813c-56.996-25.339-96.699-81.349-96.699-146.507 0-88.927 73.807-161.008 164.807-161.008 91.003 0 164.81 72.096 164.81 161.008 0 88.94-73.807 161.011-164.81 161.011-12.416 0-24.485-1.448-36.128-3.999l-20.354 59.257c63.5 31.616 116.063 31.14 116.063 31.14l19.73-10.549 65.539-5.093c-39.473 44.743-195.14 36.758-195.14 36.758l33.167 5.453c0 0-1.123 34.931-21.607 77.866-20.484 42.932-42.832 68.041-42.832 68.041-2.045-2.253-3.377-4.909-4.433-7.659 0.363 29.555 0.757 59.111 3.082 88.62 0.035 0.41-0.114 0.693-0.134 1.069 0.741 3.033-0.245 6.298-4.036 8.11-12.219 5.832-24.24 10.754-37.988 11.416-3.74 0.177-7.165-2.654-8.119-6.050-4.347-15.349-5.499-31.432-3.625-47.198-1.352 2.672-2.668 5.335-4.15 7.973-2.29 4.021-6.259 4.636-9.684 3.393-3.854 0.646-8.234-0.805-9.945-5.372-2.767-7.376-8.781-12.339-9.092-20.883-0.49-13.435 15.481-22.164 25.591-27.536 1.915-1.022 3.823-1.072 5.632-0.74 4.971-19.668 6.621-39.983 5.4-60.842-30.763-19.491-18.903-37.271-18.903-37.271l-5.585-9.275c0 0-29.064 40.384-124.017-19.653s-169.806-21.831-232.368 0c-62.559 21.834-292.707 27.278-292.707 27.278 113.217-16.732 163.115-107.692 163.115-107.692l-89.371 53.841c-39.48-3.645-29.058-44.389-29.058-44.389l164.604-98.233c32.022 11.649 68.515-23.282 68.515-23.282l34.261-58.952-46.941-13.063c-24.373 59.192-83.555 101.027-152.868 101.027-91.028 0-164.804-72.099-164.804-161.008s73.791-160.989 164.801-160.989zM859.171 336.828c62.991 0 114.203-50.054 114.203-111.594 0-61.528-51.215-111.579-114.203-111.579s-114.203 50.050-114.203 111.579c0 43.264 25.363 80.784 62.314 99.287l35.899-104.516c2.372-6.889 8.943-11.248 15.99-11.248 1.762 0 3.575 0.292 5.352 0.851 8.825 2.915 13.586 12.242 10.641 20.886l-35.902 104.532c6.472 1.109 13.109 1.802 19.908 1.802zM742.201 664.632c5.136 3.918 10.097 7.746 14.82 11.779-0.658-24.366-0.789-48.752-1.317-73.134-4.478-1.61-8.529-3.241-12.254-4.875 0.445 22.008-2.306 43.513-8.612 64.238 2.388-0.348 4.993 0.211 7.362 1.992zM562.736 407.153c78.549 23.015 105.193-11.633 113.56-30.152-6.933-64.263-29.541-108.86-67.682-132.173-50.029-30.553-115.57-18.615-147.039-10.070 3.457 45.129 20.204 148.666 101.161 172.396zM164.801 310.343c46.060 0 85.714-26.821 103.778-65.257l-123.686-34.415 4.471-26.194 129.23 22.188c0.191-2.622 0.41-5.232 0.41-7.902 0-61.541-51.231-111.594-114.222-111.594-62.982 0-114.212 50.054-114.212 111.594 0.019 61.528 51.266 111.579 114.231 111.579zM630.154 352.821h-135.174l-22.365-113.974c136.192-30.29 157.538 113.974 157.538 113.974z" />
<glyph unicode="&#xe915;" glyph-name="parking" data-tags="parking" d="M161.088 604.501c4.768-0.672 10.88-1.024 17.728-1.024 30.688 0 56.96 7.488 74.656 24.224 13.6 12.96 21.12 32.064 21.12 54.56 0 22.528-9.888 41.6-24.608 53.184-15.296 12.288-38.112 18.4-70.176 18.4-31.712 0-54.208-2.016-70.176-4.768v-226.72h51.456v82.144zM161.088 712.597c3.712 1.024 10.848 2.048 21.44 2.048 25.888 0 40.544-12.64 40.544-33.76 0-23.52-17.024-37.504-44.64-37.504-7.488 0-12.928 0.352-17.376 1.376l0.032 67.84zM63.968 451.253h256.256c32.416 0 58.688 26.272 58.688 58.688v256.288c0 32.416-26.272 58.688-58.688 58.688h-256.256c-32.416 0-58.688-26.272-58.688-58.688v-256.288c0-32.416 26.304-58.688 58.688-58.688zM51.648 762.741c0 8.736 7.104 15.84 15.84 15.84h249.248c8.736 0 15.84-7.104 15.84-15.84v-249.28c0-8.704-7.104-15.84-15.84-15.84h-249.248c-8.736 0-15.84 7.104-15.84 15.84v249.28zM242.944 144.501c-56.64 0-102.496-45.888-102.496-102.496 0-56.672 45.888-102.528 102.496-102.528 56.576 0 102.496 45.888 102.496 102.528 0 56.608-45.92 102.496-102.496 102.496zM242.944 11.061c-17.024 0-30.976 13.888-30.976 30.944s13.952 30.944 30.976 30.944c16.992 0 30.912-13.888 30.912-30.944s-13.92-30.944-30.912-30.944zM989.248 126.005l-16.8 136.384c-3.264 26.176-26.144 45.376-52.544 43.936l-36.704-2.016-114.080 102.752c-10.976 9.888-25.184 15.328-39.968 15.328l-231.712 0.032c-52 0-102.432-17.76-142.976-50.336l-129.248-103.904-173.856-43.392c-22.336-5.6-38.016-25.664-38.016-48.672v-50.080c-7.36-0.032-13.344-6.016-13.344-13.376v-66.272c0-9.44 7.648-17.088 17.088-17.088h98.144c-0.416 4.256-1.28 8.32-1.28 12.672 0 71.232 57.728 128.928 128.96 128.928s128.928-57.728 128.928-128.928c0-4.384-0.896-8.448-1.312-12.672h271.808c-0.416 4.256-1.28 8.32-1.28 12.672 0 71.232 57.728 128.928 128.928 128.928 71.264 0 128.928-57.728 128.928-128.928 0-4.384-0.864-8.448-1.312-12.672h91.552c9.44 0 17.090 7.648 17.090 17.088v62.496c0.126 9.44-7.554 17.12-16.994 17.12zM645.344 293.621l-323.264-16.384 61.888 49.76c33.632 27.072 75.424 41.792 118.592 41.792h142.784v-75.168zM699.072 296.373v72.384h21.024c7.296 0 14.304-2.688 19.712-7.584l65.984-59.392-106.72-5.408zM770.048 144.501c-56.64 0-102.496-45.888-102.496-102.496 0-56.672 45.92-102.528 102.496-102.528s102.496 45.888 102.496 102.528c0.032 56.608-45.92 102.496-102.496 102.496zM770.048 11.061c-17.024 0-30.944 13.888-30.944 30.944s13.92 30.944 30.944 30.944c16.992 0 30.944-13.888 30.944-30.944s-13.92-30.944-30.944-30.944z" />
<glyph unicode="&#xe916;" glyph-name="swimming" data-tags="swimming" d="M123.872 583.74l235.415-30.26c8.216-20.858 49.612-123.526 57.396-141.898 0 0 0 0-0.109 0-68.203-33.718-136.407-67.329-204.61-101.047 23.671 4.323 47.667 6.484 71.77 6.484 31.562 0 62.475-3.783 91.983-11.239 59.556-15.13 113.384-39.337 165.374-62.79 46.37-20.858 90.253-40.636 134.029-51.984 6.161-1.621 12.106-3.026 18.051-4.214-51.882 106.234-191.423 392.516-218.985 455.522-12.971 29.72-30.805 40.743-56.096 43.985l-276.488 35.556c-38.155 4.863-73.067-22.047-78.039-60.196-4.757-38.149 22.157-73.056 60.312-77.92zM18.141 85.612c7.724-5.463 16.537-8.034 25.349-8.034 1.958 0 3.808 0.108 5.657 0.428 11.532 1.5 22.412 7.498 29.701 17.46 28.178 38.67 71.805 69.091 122.613 85.802 29.157 9.532 59.62 14.353 89.539 14.353 108.469 0 201.49-63.842 299.405-100.582 52.44-19.71 107.164-34.278 166.675-34.278 25.023 0 50.916 2.57 77.789 8.461 63.211 13.711 117.391 43.275 156.557 84.731 9.356 9.962 17.841 20.459 25.349 31.707 13.273 19.71 7.725 46.275-12.294 59.343-7.398 4.82-15.667 7.070-23.935 7.070-14.143 0-27.961-6.748-36.338-19.174-3.373-5.033-7.072-9.854-11.097-14.568-27.199-31.921-67.997-54.844-116.955-65.449-45.15-9.749-94.979-6.856-139.475 4.498-46.782 11.997-92.042 32.028-140.13 53.346-51.134 22.602-103.9 46.061-161.125 60.413-27.199 6.856-55.703 10.176-84.534 10.176-39.275 0-79.203-6.319-117.173-18.746-33.183-10.926-63.972-26.136-91.606-45.311-29.157-20.245-54.071-44.347-74.090-71.769-1.306-1.821-2.394-3.642-3.373-5.57-9.465-18.531-4.243-41.776 13.491-54.309zM960.985 446.731c0-82.656-67.006-149.662-149.662-149.662s-149.662 67.006-149.662 149.662c0 82.656 67.006 149.662 149.662 149.662s149.662-67.006 149.662-149.662z" />
<glyph unicode="&#xe917;" glyph-name="delete" data-tags="delete" d="M512 896c-282.77 0-512-229.23-512-512s229.23-512 512-512c282.77 0 512 229.23 512 512-0.321 282.637-229.363 511.679-512 512v0zM512-58.182c-244.21 0-442.182 197.972-442.182 442.182s197.972 442.182 442.182 442.182c244.21 0 442.182-197.972 442.182-442.182s-197.972-442.182-442.182-442.182zM699.089 572.044c-13.885 13.359-35.967 12.942-49.338-0.931l-132.375-137.775-144.081 138.705c-8.895 9.092-22.032 12.627-34.289 9.225s-21.693-13.201-24.63-25.577c-2.937-12.376 1.090-25.371 10.512-33.917l143.104-137.775-143.104-137.775c-13.88-13.365-14.307-35.447-0.954-49.338 6.55-6.887 15.654-10.761 25.158-10.706 9.028 0.006 17.703 3.51 24.204 9.775l144.081 138.705 132.375-137.775c13.371-13.873 35.453-14.29 49.338-0.931s14.324 35.441 0.977 49.338l-133.329 138.705 133.329 138.705c13.346 13.898 12.909 35.98-0.977 49.338v0z" />
<glyph unicode="&#xe918;" glyph-name="massage" data-tags="massage" d="M666.772-82.531h-666.772v63.755c12.131-9.885 27.62-15.884 44.3-15.884h576.439l46.033-47.871zM288.545 853.698c-35.743 0-64.771-29.767-64.771-66.421 0-22.77 11.156-42.874 28.27-54.87 7.365 20.882 19.28 40.097 35.093 56.314s34.552 28.434 54.914 35.987c-11.698 17.548-31.302 28.99-53.506 28.99zM270.023 679.647c0-69.975 55.349-126.622 123.476-126.622 68.129 0 123.476 56.758 123.476 126.622 0 69.975-55.348 126.622-123.476 126.622-14.513 0-28.378-2.555-41.267-7.22-34.985-12.773-62.821-41.208-75.169-77.084-4.549-13.329-7.040-27.545-7.040-42.319zM202.978 504.931c-28.919-65.755-91.957-233.807-109.287-276.125h215.109c4.766 11.995 10.074 23.657 15.922 34.653 20.254 38.764 83.51 57.981 68.454 112.072-0.108 0.444-0.325 0.89-0.433 1.445l56.649-55.094c4.223-4.109 9.315-7.441 14.731-9.552l154.887-60.645c5.199-2 10.615-2.998 15.922-2.998 17.98 0 34.877 11.218 41.591 29.434 8.774 23.546-2.708 49.982-25.778 58.979l-136.907 53.648c-6.39 2.555-12.24 6.331-17.222 11.107 0 0-120.552 117.292-120.66 117.403-5.090 4.998-11.698 8.219-18.629 10.552-1.625 0.555-3.359 1.111-5.091 1.555-1.841 0.555-3.791 1.111-5.741 1.555-30.112 8.219-63.579 15.217-94.557 12.44-10.181-0.889-21.338-3.554-30.003-9.663-9.966-7.33-14.082-19.771-18.956-30.766zM44.3-6.89h587.704l56.323-58.534c5.307-5.554 11.698-9.885 18.521-12.773 6.715-2.777 13.865-4.332 21.23-4.332h240.021c31.194 0 56.323 26.213 55.896 58.202-0.547 31.435-26.11 56.312-56.761 56.312h-215.761l-146.655 152.613c-11.373 11.886-18.088 16.772-38.451 16.772-35.093 0-522.067-0.332-522.067-0.332-24.479 0-44.3-20.327-44.3-45.429v-117.071c0-25.101 19.821-45.429 44.3-45.429zM943.402 202.593c0 72.529-57.406 131.397-128.134 131.397s-128.134-58.868-128.134-131.397c0-72.531 57.406-131.4 128.134-131.4s128.134 58.758 128.134 131.4z" />
<glyph unicode="&#xe919;" glyph-name="wifi" data-tags="wifi" d="M150.003 438.573c-20.65-21.832-20.65-57.362 0-79.407 20.65-21.832 54.258-21.832 75.111 0 142.933 151.109 375.554 151.109 518.487 0 10.325-10.916 23.89-16.481 37.454-16.481s27.129 5.565 37.454 16.481c20.65 21.832 20.65 57.362 0 79.407-184.234 194.987-484.272 194.987-668.506 0zM311.082 294.477c-20.197-19.651-20.197-51.631 0-71.474 20.197-19.651 53.067-19.651 73.462 0 62.374 60.878 164.151 60.878 226.525 0 10.099-9.825 23.365-14.834 36.632-14.834s26.533 5.009 36.632 14.834c20.197 19.651 20.197 51.631 0 71.281-102.768 100.372-270.285 100.372-373.251 0.193zM564.966 87.105c0-37.145-30.112-67.258-67.258-67.258s-67.258 30.112-67.258 67.258c0 37.145 30.112 67.258 67.258 67.258s67.258-30.112 67.258-67.258zM979.853 570.075c-265.892 270.746-698.398 270.746-964.29 0-20.751-21.146-20.751-55.559 0-76.912 20.751-21.146 54.521-21.146 75.475 0 224.187 228.662 589.152 228.662 813.543 0 10.375-10.573 24.006-15.963 37.636-15.963s27.261 5.39 37.636 15.963c20.751 21.146 20.751 55.559 0 76.912z" />
<glyph unicode="&#xe91a;" glyph-name="caret-up" data-tags="caret-up" d="M33.33 183.544c-15.569-16.509-15.569-42.742 0-59.252 7.454-7.873 17.688-12.314 28.377-12.314s20.922 4.441 28.377 12.314l427.099 445.827 412.317-445.692c7.416-7.843 17.604-12.268 28.245-12.268s20.829 4.425 28.245 12.268c15.837 16.397 15.837 42.855 0 59.252l-468.806 498.161-483.852-498.297z" />
<glyph unicode="&#xe91b;" glyph-name="star-fill" data-tags="star-fill" d="M512 88.576l316.416-190.976-83.968 359.936 279.552 242.176-368.128 31.744-143.872 338.944-143.872-338.944-368.128-31.744 279.040-242.176-83.456-359.936z" />
<glyph unicode="&#xe91c;" glyph-name="star" data-tags="star" d="M512 184.832l-192.512-116.224 50.688 219.136-169.984 147.456 224.256 18.944 87.552 206.848 87.552-206.848 224.256-18.944-169.984-147.456 50.688-219.136-192.512 116.224zM1024 499.712l-368.128 31.232-143.872 339.456-143.872-339.456-368.128-31.232 279.040-242.176-83.456-359.936 316.416 190.976 316.416-190.976-83.968 359.936 279.552 242.176z" />
<glyph unicode="&#xe91d;" glyph-name="pin-fill" data-tags="pin-fill" d="M512 430.545c-77.119 0-139.636 62.517-139.636 139.636 0 37.034 14.712 72.551 40.899 98.738s61.704 40.899 98.738 40.899c77.119 0 139.636-62.517 139.636-139.636 0-37.034-14.712-72.551-40.899-98.738s-61.704-40.899-98.738-40.899v0zM512 896c-179.944 0-325.818-160.461-325.818-358.4 0-268.8 325.818-665.6 325.818-665.6s325.818 396.8 325.818 665.6c0 197.939-145.874 358.4-325.818 358.4z" />
<glyph unicode="&#xe91e;" glyph-name="user-2" data-tags="user-2" d="M491.041 264.234c132.078 0 227.556 128.868 227.556 287.439s-95.478 287.439-227.556 287.439c-132.078 0-227.556-128.868-227.556-287.439s95.478-287.439 227.556-287.439zM491.041 767.251c92.603 0 155.696-96.531 155.696-215.579s-63.093-215.579-155.696-215.579c-92.603 0-155.696 96.531-155.696 215.579s63.093 215.579 155.696 215.579zM710.189 287.948c-13.163 2.093-26.404-3.272-34.397-13.939s-9.424-24.881-3.717-36.927c5.706-12.046 17.612-19.943 30.928-20.515 111.418-13.272 197.663-103.882 205.423-215.818h-834.794c8.434 111.665 94.377 201.925 205.495 215.818 18.807 2.991 32.013 20.136 30.106 39.083s-18.266 33.115-37.292 32.298c-2.731-0.24-271.893-30.421-271.893-323.129 0-19.843 16.086-35.93 35.93-35.93h910.222c19.843 0 35.93 16.086 35.93 35.93-0.048 292.708-269.21 322.889-271.941 323.129v0z" />
<glyph unicode="&#xe91f;" glyph-name="caret-right" data-tags="caret-right" d="M302.161-75.585c-16.063-15.569-41.587-15.569-57.651 0-7.66 7.454-11.981 17.688-11.981 28.377s4.321 20.922 11.981 28.377l433.778 427.099-433.646 412.317c-7.631 7.416-11.937 17.604-11.937 28.245s4.306 20.829 11.937 28.245c15.954 15.837 41.697 15.837 57.651 0l484.697-468.806-484.829-483.852z" />
<glyph unicode="&#xe920;" glyph-name="transfer-horizontal" data-tags="transfer-horizontal" d="M1003.040 188.365c3.096 14.529-1.267 29.645-11.629 40.29l-192.874 166.96c-17.904 18.042-46.907 18.583-65.471 1.221-8.825-8.306-13.935-19.815-14.176-31.932s4.406-23.82 12.894-32.471l115.742-104.083h-680.384c-12.18-0.104-23.817-5.058-32.335-13.765s-13.215-20.45-13.057-32.629c0-25.639 36.326-44.869 61.385-44.869h671.502l-128.593-103.778c-9.002-8.126-14.353-19.533-14.847-31.65s3.911-23.922 12.222-32.753c8.817-9.398 21.146-14.706 34.033-14.651 11.575-0.021 22.754 4.216 31.408 11.904l200.596 182.221c10.947 10.207 16.047 25.222 13.583 39.985v0zM1.374 603.78c-3.082-14.622 1.273-29.822 11.629-40.595l193.515-167.57c17.859-18.342 47.157-18.887 65.685-1.221 8.859 8.35 13.986 19.913 14.227 32.085s-4.424 23.929-12.945 32.623l-116.139 104.693h682.612c25.707 0 46.547 20.84 46.547 46.547s-20.84 46.547-46.547 46.547h-689.54l128.837 102.557c9.035 8.17 14.404 19.632 14.898 31.803s-3.929 24.030-12.273 32.905c-17.574 18.544-46.751 19.629-65.655 2.442l-201.237-182.832c-10.962-10.198-16.076-25.216-13.613-39.985v0z" />
<glyph unicode="&#xe921;" glyph-name="caret-down" data-tags="caret-down" d="M33.33 584.456c-15.569 16.509-15.569 42.742 0 59.252 7.454 7.873 17.688 12.314 28.377 12.314s20.922-4.441 28.377-12.314l427.099-445.827 412.317 445.692c7.416 7.843 17.604 12.268 28.245 12.268s20.829-4.425 28.245-12.268c15.837-16.397 15.837-42.855 0-59.252l-468.806-498.161-483.852 498.297z" />
<glyph unicode="&#xe922;" glyph-name="arrow-right-circle" data-tags="arrow-right-circle" d="M512 896c-282.77 0-512-229.23-512-512s229.23-512 512-512c282.77 0 512 229.23 512 512-0.321 282.637-229.363 511.679-512 512zM512-58.182c-244.21 0-442.182 197.972-442.182 442.182s197.972 442.182 442.182 442.182c244.21 0 442.182-197.972 442.182-442.182s-197.972-442.182-442.182-442.182zM469.201 596.247c-13.729 12.992-35.304 12.697-48.673-0.665s-13.674-34.938-0.688-48.673l156.323-156.393-156.323-156.393c-12.985-13.735-12.68-35.31 0.688-48.673s34.944-13.657 48.673-0.665l205.708 205.731-205.708 205.731z" />
<glyph unicode="&#xe923;" glyph-name="arrow-left-circle" data-tags="arrow-left-circle" d="M512 896c-282.77 0-512-229.23-512-512s229.23-512 512-512c282.77 0 512 229.23 512 512-0.321 282.637-229.363 511.679-512 512v0zM512-58.182c-244.21 0-442.182 197.972-442.182 442.182s197.972 442.182 442.182 442.182c244.21 0 442.182-197.972 442.182-442.182s-197.972-442.182-442.182-442.182zM475.857 386.327l160.419 160.349c9.227 8.732 12.982 21.786 9.805 34.086s-12.784 21.903-25.086 25.074c-12.301 3.171-25.354-0.59-34.081-9.821l-209.78-209.687 210.153-210.153c13.729-12.992 35.304-12.697 48.673 0.665s13.674 34.938 0.688 48.673l-160.791 160.815z" />
<glyph unicode="&#xe924;" glyph-name="seat" data-tags="seat" d="M367.836 639.108c-21.039 14.535-48.805 14.85-70.152 0.78-21.354-14.070-32.027-39.698-26.972-64.762v0l76.275-378.314c5.907-29.267 31.621-50.312 61.478-50.312v0h277.649l96.888-198.693c10.87-22.278 33.188-35.24 56.416-35.24 9.225 0 18.587 2.039 27.438 6.36 31.136 15.178 44.058 52.719 28.88 83.848v0l-114.072 233.919c-10.51 21.55-32.388 35.22-56.364 35.22v0h-265.514l-35.417 175.667 75.252-52.011c7.651-5.284 16.377-8.805 25.55-10.3v0l171.268-27.962c34.178-5.56 66.415 17.61 71.994 51.788 5.579 34.184-17.603 66.415-51.781 71.994v0l-157.336 25.687zM225.442 497.487c-6.556 26.92-33.712 43.409-60.619 36.859-26.92-6.556-43.422-33.699-36.866-60.619v0l101.366-415.94c5.474-22.468 25.609-38.288 48.739-38.288v0h316.843c27.707 0 50.168 22.462 50.168 50.168 0 27.7-22.462 50.168-50.168 50.168v0h-277.433zM315.072 896c-59.845 0-108.355-48.509-108.355-108.355s48.509-108.355 108.355-108.355c59.845 0 108.355 48.509 108.355 108.355s-48.509 108.355-108.355 108.355z" />
<glyph unicode="&#xe925;" glyph-name="customer" data-tags="customer" d="M485.855 726.271c56.115-34.066 95.464-91.713 102.628-158.628 22.885-10.353 48.285-16.307 75.214-16.307 98.311 0 177.993 77.151 177.993 172.325 0 95.188-79.682 172.339-177.993 172.339-97.372-0.029-176.357-75.802-177.841-169.729zM369.247 373.409c98.311 0 177.993 77.166 177.993 172.339s-79.697 172.325-177.993 172.325c-98.296 0-178.023-77.166-178.023-172.339s79.727-172.325 178.023-172.325zM444.749 361.663h-151.034c-125.664 0-227.898-99.001-227.898-220.674v-178.836l0.47-2.801 12.722-3.857c119.924-36.28 224.112-48.379 309.867-48.379 167.497 0 264.581 46.238 270.564 49.185l11.889 5.822h1.272v178.865c0.045 121.673-102.188 220.674-227.853 220.674zM739.228 539.575h-149.867c-1.621-58.057-27.217-110.337-67.702-147.937 111.7-32.16 193.426-132.451 193.426-250.913v-55.11c147.974 5.25 233.245 45.856 238.864 48.584l11.889 5.837h1.272v178.894c0 121.658-102.234 220.645-227.883 220.645z" />
<glyph unicode="&#xe926;" glyph-name="pin" data-tags="pin" d="M482.909 896c-228.931-5.755-413.154-189.978-418.909-418.909 3.908-67.686 22.583-133.696 54.714-193.396 0.977-1.862 2.048-3.724 3.212-5.585 253.324-406.109 328.774-406.109 360.983-406.109 50.246 0 104.727 35.375 233.728 215.738 67.281 94.022 124.858 186.415 127.279 190.371 1.164 1.862 2.211 3.724 3.188 5.585 32.127 59.703 50.801 125.712 54.714 193.396-5.755 228.931-189.978 413.154-418.909 418.909zM784.64 314.88c0 0-232.215-373.062-301.731-373.062-68.934 0-301.731 373.062-301.731 373.062-27.236 50.049-43.387 105.37-47.36 162.211 0 192.798 156.293 349.091 349.091 349.091s349.091-156.293 349.091-349.091c-3.97-56.841-20.122-112.163-47.36-162.211v0zM482.909 686.545c-102.825 0-186.182-83.356-186.182-186.182s83.356-186.182 186.182-186.182c102.825 0 186.182 83.356 186.182 186.182-0.128 102.772-83.41 186.054-186.182 186.182zM482.909 384c-64.266 0-116.364 52.098-116.364 116.364s52.098 116.364 116.364 116.364c64.266 0 116.364-52.098 116.364-116.364s-52.098-116.364-116.364-116.364v0z" />
<glyph unicode="&#xe927;" glyph-name="transfer" data-tags="transfer" d="M291.219-126.759c15.483-2.984 31.504 1.543 42.823 12.102l176.955 196.422c19.246 18.212 19.835 47.813 1.327 66.715-8.745 9.053-20.94 14.326-33.806 14.618s-25.308-4.421-34.49-13.066l-110.536-118.225v693.838c-0.285 25.761-22.262 46.442-49.134 46.237-27.157 0-47.484-36.928-47.484-62.683v-684.528l-110.051 131.258c-8.648 9.108-20.751 14.502-33.589 14.969s-25.333-4.033-34.675-12.487c-9.952-9.038-15.574-21.612-15.537-34.754-0.013-11.832 4.608-23.238 12.947-31.961l193.236-204.49c10.757-10.995 26.466-16.216 42.013-13.964zM731.81 894.759c-15.532 2.989-31.604-1.536-42.984-12.102l-177.796-197.353c-19.297-18.191-19.887-47.832-1.327-66.715 8.795-9.059 21.031-14.332 33.936-14.624s25.388 4.422 34.619 13.073l111.086 118.536v-696.010c0.685-25.654 22.576-46.11 49.345-46.11s48.659 20.455 49.345 46.11v703.147l108.918-131.568c8.697-9.116 20.843-14.51 33.72-14.976s25.412 4.034 34.803 12.494c9.992 9.016 15.641 21.599 15.601 34.754-0.031 11.917-4.64 23.406-12.947 32.272l-193.98 205.11c-10.858 11.047-26.688 16.268-42.337 13.964v0z" />
<glyph unicode="&#xe928;" glyph-name="close" data-tags="close" d="M585.696 390.058l394.856 422.714c17.957 19.364 17.649 50.227-0.69 69.195-8.794 9.102-20.704 14.154-33.080 14.033-12.376-0.125-24.192-5.413-32.818-14.689l-394.165-422.058-410.483 422.714c-8.798 9.094-20.706 14.14-33.080 14.017s-24.188-5.405-32.818-14.673c-17.974-19.346-17.694-50.208 0.628-69.195l409.887-422.058-409.887-422.058c-18.321-18.987-18.601-49.849-0.628-69.195 8.622-9.284 20.439-14.577 32.818-14.7s24.291 4.934 33.080 14.045l410.483 422.714 394.165-422.058c8.736-9.436 20.762-14.758 33.326-14.758 12.245-0.049 23.999 5.029 32.635 14.102 18.339 18.969 18.647 49.831 0.69 69.195l-394.918 422.714z" />
<glyph unicode="&#xe929;" glyph-name="search" data-tags="search" d="M960.56-43.226l-220.734 221.401c154.45 155.609 159.012 405.234 10.351 566.382s-397.843 176.692-565.378 35.266c-167.534-141.425-194.028-389.682-60.113-563.278s380.766-210.989 560.087-84.843l225.119-225.929c14.084-13.991 36.843-13.917 50.834 0.167s13.917 36.843-0.167 50.834v0zM116.9 464.637c0.592 184.59 150.607 333.806 335.198 333.412s333.967-150.25 333.77-334.841-149.892-334.128-334.483-334.128c-88.858 0.126-174.025 35.554-236.756 98.487s-97.887 148.212-97.729 237.070z" />
<glyph unicode="&#xe92a;" glyph-name="arrow-left" data-tags="arrow-left" d="M1.102 394.628c-3.497-16.593 1.444-33.842 13.197-46.067l219.597-190.156c20.266-20.814 53.512-21.432 74.538-1.385 10.053 9.476 15.871 22.597 16.145 36.41s-5.020 27.154-14.69 37.020l-131.793 118.804h774.616c29.172 0 52.821 23.649 52.821 52.821s-23.649 52.821-52.821 52.821h-782.479l146.202 116.379c10.253 9.272 16.345 22.278 16.906 36.090s-4.459 27.269-13.927 37.34c-19.943 21.044-53.053 22.275-74.504 2.771l-228.36-207.474c-12.44-11.572-18.242-28.615-15.448-45.374v0z" />
<glyph unicode="&#xe92b;" glyph-name="arrow-right" data-tags="arrow-right" d="M1022.489 430.945c3.483 16.346-1.425 33.351-13.083 45.326l-216.983 187.83c-20.142 20.297-52.77 20.905-73.655 1.374-9.928-9.344-15.677-22.292-15.948-35.924s4.957-26.798 14.506-36.53l130.21-117.093h-765.432c-13.703-0.118-26.794-5.691-36.377-15.486s-14.867-23.006-14.689-36.709c0-28.843 40.867-50.476 69.059-50.476h755.439l-144.667-116.75c-10.127-9.141-16.147-21.975-16.702-35.606s4.4-26.912 13.749-36.847c9.919-10.573 23.789-16.544 38.287-16.483 13.022-0.023 25.599 4.743 35.334 13.392l225.67 204.999c12.315 11.483 18.053 28.375 15.28 44.983v0z" />
<glyph unicode="&#xe92c;" glyph-name="user" data-tags="user" d="M512 896c-282.77 0-512-229.23-512-512s229.23-512 512-512c282.77 0 512 229.23 512 512-0.321 282.637-229.363 511.679-512 512zM69.818 384c-0.268 193.715 125.584 365.051 310.512 422.734s385.871-11.718 495.783-171.232c109.913-159.514 103.202-371.999-16.558-524.259-53.317 79.468-130.709 139.746-220.812 171.985 38.717 41.534 59.996 96.356 59.439 153.135 0 115.433-83.526 209.455-186.182 209.455s-186.182-94.022-186.182-209.455c-0.638-59.064 22.461-115.911 64.116-157.789-90.772-32.655-167.312-95.945-216.436-178.967-67.035 79.594-103.76 180.331-103.68 284.393zM523.636 302.545c-12.777 0-25.46-0.931-38.074-2.095-51.503 14.196-89.926 69.585-89.926 135.913 0 77.033 52.108 139.636 116.364 139.636s116.364-62.604 116.364-139.636c2.944-58.521-31.355-112.531-85.574-134.749-6.377 0.465-12.707 0.931-19.153 0.931zM225.373 47.709c50.723 98.954 146.577 166.9 256.745 181.993 9.866-1.757 19.861-2.691 29.882-2.793 12.969-0.069 25.9 1.415 38.516 4.422 112.826-10.705 209.245-88.204 260.189-172.684-164.127-151.501-415.66-156.202-585.332-10.938v0z" />
<glyph unicode="&#xe92d;" glyph-name="bell" data-tags="bell" d="M983.753 142.048c-92.046 78.267-177.227 188.692-177.227 464.391 0 159.665-132.115 289.56-294.508 289.56-162.415 0-294.548-129.895-294.548-289.56 0-275.949-85.149-386.265-177.276-464.466-25.542-21.873-40.194-53.372-40.194-86.427 0-18.192 15-32.941 33.502-32.941h317.937c15.509-73.185 81.603-128.345 160.561-128.345s145.056 55.156 160.561 128.345h317.937c18.502 0 33.502 14.749 33.502 32.941 0 33.323-14.687 64.871-40.247 86.502zM512-39.858c-41.722 0-77.372 26.041-91.041 62.464h182.083c-13.669-36.423-49.32-62.464-91.041-62.464zM80.2 88.487c1.219 1.3 2.519 2.539 3.891 3.711 140.455 119.227 200.379 273.020 200.379 514.241 0 123.338 102.079 223.679 227.543 223.679 125.446 0 227.503-100.341 227.503-223.679 0-241.002 59.933-394.79 200.46-514.272 1.371-1.164 2.671-2.389 3.895-3.681h-863.671z" />
<glyph unicode="&#xe92e;" glyph-name="ticket" data-tags="ticket" d="M398.115 860.554c27.034 0 54.066-10.298 74.712-30.898v0l484.827-484.831c20.6-20.646 30.9-47.682 30.9-74.718s-10.3-54.070-30.903-74.715v0l-257.055-257.057c-20.642-20.592-47.674-30.889-74.709-30.889s-54.069 10.296-74.723 30.892v0l-484.812 484.831c-20.604 20.65-30.905 47.686-30.905 74.722s10.302 54.072 30.909 74.725v0l53.451 53.451c51.884-9.325 70.909-14.477 89.472-13.154s36.663 9.12 50.677 23.133c14.016 14.016 21.813 32.117 23.135 50.678 1.322 18.563-3.833 37.587-15.721 53.447-4.403 5.878-6.131 13.009-5.299 19.856v0l61.327 69.631c20.65 20.596 47.686 30.894 74.719 30.894zM879.324 345.18l-329.377-327.626 40.219-40.213c9.868-9.854 22.795-14.782 35.723-14.782s25.855 4.928 35.724 14.784l257.050 257.044c9.866 9.866 14.798 22.796 14.798 35.726s-4.933 25.861-14.798 35.727l-39.339 39.339zM398.113 805.439c-12.928 0-25.856-4.925-35.73-14.774l-38.13-38.124c12.701-25.449 16.721-53.528 12.648-80.379-4.212-27.767-17.079-54.221-37.952-75.095-20.88-20.876-47.333-33.743-75.098-37.955-26.851-4.073-54.929-0.051-80.382 12.651l-38.126-38.141c-9.508-9.454-14.842-22.324-14.801-35.722-0.034-13.422 5.293-26.279 14.793-35.732l405.624-405.634 329.378 327.633-406.498 406.501c-9.87 9.846-22.798 14.771-35.726 14.771z" />
<glyph unicode="&#xe92f;" glyph-name="home" data-tags="home" d="M999.439 490.249l-431.831 368.084c-25.612 21.777-63.234 21.777-88.846 0l-431.831-368.084c-21.535-18.382-29.695-48.032-20.597-74.844s33.616-45.374 61.891-46.854v-367.854c-0.052-38.041 30.631-68.98 68.671-69.246h732.578c38.040 0.266 68.722 31.205 68.671 69.246v367.854c28.275 1.48 52.793 20.042 61.891 46.854s0.938 56.462-20.597 74.844v0zM500.364 0.468h-45.78v207.047h137.341v-207.047h-91.561zM889.543 437.567v-437.099h-228.925v207.047c0.055 18.265-7.154 35.803-20.040 48.748s-30.389 20.237-48.654 20.267h-137.341c-18.265-0.030-35.769-7.322-48.654-20.267s-20.095-30.483-20.040-48.748v-207.047h-228.994v437.099h-65.542l431.831 368.084 431.831-368.084h-65.473z" />
</font>
</defs>
</svg>
